name C:/MyDriveSym/Projects/mobilecap/Data\Session20210910_0001\mocap\ForceDataProcessed\DJAsym3_forces.mot
datacolumns 28
datarows 13
range 1.47450000 1.48050000
endheader 
time	R_ground_force_vx	R_ground_force_vy	R_ground_force_vz	R_ground_force_px	R_ground_force_py	R_ground_force_pz	R_ground_torque_x	R_ground_torque_y	R_ground_torque_z	L_ground_force_vx	L_ground_force_vy	L_ground_force_vz	L_ground_force_px	L_ground_force_py	L_ground_force_pz	L_ground_torque_x	L_ground_torque_y	L_ground_torque_z	3_ground_force_vx	3_ground_force_vy	3_ground_force_vz	3_ground_force_px	3_ground_force_py	3_ground_force_pz	3_ground_torque_x	3_ground_torque_y	3_ground_torque_z	
          1.47450000	        -75.79231200	       2273.62193400	         60.49575900	         -0.21967300	          0.00600000	         -0.47596300	          0.00000000	        -34.31825300	          0.00000000	       -299.40699000	        823.98547000	         82.72545400	         -0.09904900	          0.00600000	         -0.80589600	          0.00000000	         -6.50797200	          0.00000000	          0.00000000	          0.00000000	          0.00000000	          0.00000000	          0.00000000	          0.00000000	          0.00000000	          0.00000000	          0.00000000	
          1.47500000	        -83.75891500	       2245.55065000	         62.23516800	         -0.21876300	          0.00600000	         -0.47592800	          0.00000000	        -34.60932000	          0.00000000	       -283.14207500	        824.70251100	         85.45613100	         -0.09961200	          0.00600000	         -0.80590300	          0.00000000	         -6.71618600	          0.00000000	          0.00000000	          0.00000000	          0.00000000	          0.00000000	          0.00000000	          0.00000000	          0.00000000	          0.00000000	          0.00000000	
          1.47550000	        -92.52603100	       2216.17406100	         63.24533700	         -0.21776000	          0.00600000	         -0.47585600	          0.00000000	        -34.85606100	          0.00000000	       -266.64730900	        824.98626000	         88.11093000	         -0.10017800	          0.00600000	         -0.80589900	          0.00000000	         -6.91392400	          0.00000000	          0.00000000	          0.00000000	          0.00000000	          0.00000000	          0.00000000	          0.00000000	          0.00000000	          0.00000000	          0.00000000	
          1.47600000	       -102.03693000	       2185.64073000	         63.53692200	         -0.21666700	          0.00600000	         -0.47574700	          0.00000000	        -35.05751200	          0.00000000	       -250.04545600	        824.92709900	         90.68259200	         -0.10074600	          0.00600000	         -0.80588700	          0.00000000	         -7.10058700	          0.00000000	          0.00000000	          0.00000000	          0.00000000	          0.00000000	          0.00000000	          0.00000000	          0.00000000	          0.00000000	          0.00000000	
          1.47650000	       -112.22842800	       2154.09540300	         63.12646600	         -0.21548300	          0.00600000	         -0.47560200	          0.00000000	        -35.21283200	          0.00000000	       -233.45336900	        824.61132100	         93.16628600	         -0.10131600	          0.00600000	         -0.80586700	          0.00000000	         -7.27616000	          0.00000000	          0.00000000	          0.00000000	          0.00000000	          0.00000000	          0.00000000	          0.00000000	          0.00000000	          0.00000000	          0.00000000	
          1.47700000	       -123.03180600	       2121.67829000	         62.03572000	         -0.21421000	          0.00600000	         -0.47542100	          0.00000000	        -35.32124400	          0.00000000	       -216.98124700	        824.11969200	         95.55826900	         -0.10188900	          0.00600000	         -0.80584200	          0.00000000	         -7.44067500	          0.00000000	          0.00000000	          0.00000000	          0.00000000	          0.00000000	          0.00000000	          0.00000000	          0.00000000	          0.00000000	          0.00000000	
          1.47750000	       -134.37380200	       2088.52450300	         60.29098400	         -0.21284800	          0.00600000	         -0.47520300	          0.00000000	        -35.38203900	          0.00000000	       -200.73170500	        823.52607400	         97.85445500	         -0.10246300	          0.00600000	         -0.80581300	          0.00000000	         -7.59373000	          0.00000000	          0.00000000	          0.00000000	          0.00000000	          0.00000000	          0.00000000	          0.00000000	          0.00000000	          0.00000000	          0.00000000	
          1.47800000	       -146.17755600	       2054.76364000	         57.92256900	         -0.21140000	          0.00600000	         -0.47495000	          0.00000000	        -35.39465500	          0.00000000	       -184.79878400	        822.89625600	        100.04928800	         -0.10303800	          0.00600000	         -0.80578000	          0.00000000	         -7.73425300	          0.00000000	          0.00000000	          0.00000000	          0.00000000	          0.00000000	          0.00000000	          0.00000000	          0.00000000	          0.00000000	          0.00000000	
          1.47850000	       -158.36349800	       2020.51955000	         54.96445700	         -0.20986500	          0.00600000	         -0.47466100	          0.00000000	        -35.35873700	          0.00000000	       -169.26710900	        822.28728500	        102.13533900	         -0.10361200	          0.00600000	         -0.80574400	          0.00000000	         -7.86060500	          0.00000000	          0.00000000	          0.00000000	          0.00000000	          0.00000000	          0.00000000	          0.00000000	          0.00000000	          0.00000000	          0.00000000	
          1.47900000	       -170.85026700	       1985.91023100	         51.45409400	         -0.20824700	          0.00600000	         -0.47433800	          0.00000000	        -35.27412500	          0.00000000	       -154.21135000	        821.74733900	        104.10368300	         -0.10418400	          0.00600000	         -0.80570600	          0.00000000	         -7.97095600	          0.00000000	          0.00000000	          0.00000000	          0.00000000	          0.00000000	          0.00000000	          0.00000000	          0.00000000	          0.00000000	          0.00000000	
          1.47950000	       -183.55569200	       1951.04782700	         47.43211200	         -0.20654700	          0.00600000	         -0.47398000	          0.00000000	        -35.14079900	          0.00000000	       -139.69616200	        821.31600600	        105.94475900	         -0.10475300	          0.00600000	         -0.80566500	          0.00000000	         -8.06377400	          0.00000000	          0.00000000	          0.00000000	          0.00000000	          0.00000000	          0.00000000	          0.00000000	          0.00000000	          0.00000000	          0.00000000	
          1.48000000	       -196.39778200	       1916.03866600	         42.94181100	         -0.20476800	          0.00600000	         -0.47358800	          0.00000000	        -34.95884600	          0.00000000	       -125.77661900	        821.02487100	        107.64941600	         -0.10531500	          0.00600000	         -0.80562000	          0.00000000	         -8.13822300	          0.00000000	          0.00000000	          0.00000000	          0.00000000	          0.00000000	          0.00000000	          0.00000000	          0.00000000	          0.00000000	          0.00000000	
          1.48050000	       -209.29566200	       1880.98333600	         38.02840800	         -0.20291200	          0.00600000	         -0.47316400	          0.00000000	        -34.72849800	          0.00000000	       -112.49906300	        820.89838000	        109.20991900	         -0.10587100	          0.00600000	         -0.80557100	          0.00000000	         -8.19427300	          0.00000000	          0.00000000	          0.00000000	          0.00000000	          0.00000000	          0.00000000	          0.00000000	          0.00000000	          0.00000000	          0.00000000	
